<?xml version="1.0" encoding="utf-8"?>
<!-- Generator: Adobe Illustrator 16.0.0, SVG Export Plug-In . SVG Version: 6.00 Build 0)  -->
<!DOCTYPE svg PUBLIC "-//W3C//DTD SVG 1.1//EN" "http://www.w3.org/Graphics/SVG/1.1/DTD/svg11.dtd">
<svg version="1.1" xmlns="http://www.w3.org/2000/svg" xmlns:xlink="http://www.w3.org/1999/xlink" x="0px" y="0px" width="36px"
	 height="14px" viewBox="0 0 36 14" enable-background="new 0 0 36 14" xml:space="preserve">
<g id="LP">
</g>
<g id="MENU">
</g>
<g id="doc-autocomplete">
</g>
<g id="EDITAR_DOMINIO">
	<g>
		<rect fill="#DD6C4A" width="36" height="14"/>
		<g>
			<g>
				<path fill="#F5F5F5" d="M8.797,10.316H6.043V4.025h2.448c0.426,0,0.793,0.051,1.103,0.153c0.309,0.102,0.539,0.239,0.688,0.414
					c0.288,0.323,0.432,0.689,0.432,1.098c0,0.492-0.156,0.858-0.468,1.098c-0.114,0.084-0.192,0.137-0.234,0.158
					C9.97,6.967,9.896,7.001,9.788,7.05c0.39,0.084,0.7,0.259,0.931,0.526c0.231,0.267,0.347,0.599,0.347,0.994
					c0,0.438-0.15,0.825-0.45,1.161C10.261,10.121,9.655,10.316,8.797,10.316z M7.105,6.636h1.35c0.768,0,1.152-0.262,1.152-0.783
					c0-0.3-0.093-0.516-0.279-0.648C9.143,5.072,8.854,5.007,8.464,5.007H7.105V6.636z M7.105,9.335h1.665
					c0.39,0,0.688-0.061,0.896-0.184s0.311-0.356,0.311-0.698c0-0.558-0.447-0.837-1.341-0.837h-1.53V9.335z"/>
				<path fill="#F5F5F5" d="M17.267,4.025v0.999H13.91v1.665h3.015v0.945H13.91v1.683h3.465v0.999h-4.527V4.025H17.267z"/>
				<path fill="#F5F5F5" d="M21.559,4.997v5.319h-1.062V4.997h-1.908V4.025h4.878v0.972H21.559z"/>
				<path fill="#F5F5F5" d="M25.465,8.886l-0.63,1.431h-1.134l2.772-6.291h1.134l2.772,6.291h-1.134l-0.63-1.431H25.465z
					 M28.183,7.904L27.04,5.312l-1.143,2.592H28.183z"/>
			</g>
		</g>
	</g>
</g>
<g id="modal" display="none">
</g>
<g id="LOADING">
</g>
</svg>
