<?xml version="1.0" encoding="utf-8"?>
<!-- Generator: Adobe Illustrator 16.0.0, SVG Export Plug-In . SVG Version: 6.00 Build 0)  -->
<!DOCTYPE svg PUBLIC "-//W3C//DTD SVG 1.1//EN" "http://www.w3.org/Graphics/SVG/1.1/DTD/svg11.dtd">
<svg version="1.1" xmlns="http://www.w3.org/2000/svg" xmlns:xlink="http://www.w3.org/1999/xlink" x="0px" y="0px"
	 width="60.448px" height="25px" viewBox="0 0 60.448 25" enable-background="new 0 0 60.448 25" xml:space="preserve">
<g id="LP">
</g>
<g id="MENU">
</g>
<g id="doc-autocomplete">
</g>
<g id="EDITAR_DOMINIO">
	<g>
		<g>
			<g>
				<path fill="#F5F5F5" d="M0,0h1.67v2.272v0.997C2.067,2.527,2.91,2.209,3.74,2.221c1.084,0,1.763,0.372,2.17,0.984
					c0.422,0.613,0.549,1.443,0.549,2.387v3.856H4.787V5.67c0-0.538-0.09-0.997-0.319-1.329C4.225,4.009,3.842,3.792,3.254,3.792
					c-0.663,0-1.058,0.268-1.288,0.614C1.736,4.751,1.67,5.171,1.67,5.529v3.92H0V0z"/>
				<path fill="#F5F5F5" d="M15.549,9.449h-1.673v-1.01c-0.446,0.818-1.378,1.227-2.363,1.227c-2.245,0-3.561-1.75-3.561-3.729
					c0-2.207,1.596-3.716,3.561-3.716c1.278,0,2.057,0.677,2.363,1.241V2.438h1.673V9.449z M9.625,5.978
					c0,0.867,0.626,2.13,2.134,2.13c0.933,0,1.542-0.483,1.863-1.123c0.166-0.307,0.242-0.64,0.27-0.984
					c0.011-0.331-0.053-0.677-0.193-0.983c-0.295-0.663-0.944-1.237-1.953-1.237c-1.354,0-2.121,1.098-2.121,2.182V5.978z"/>
				<path fill="#F5F5F5" d="M17.438,0h1.671v2.465v0.843c0.689-0.857,1.699-1.087,2.337-1.087c1.659,0,3.499,1.213,3.499,3.691
					c0,2.374-1.659,3.753-3.575,3.753c-1.098,0-1.954-0.537-2.324-1.227v1.01h-1.608V0z M23.272,5.925
					c0-1.151-0.881-2.145-2.106-2.145c-1.301,0-2.12,1.022-2.12,2.156c0,1.175,0.818,2.171,2.082,2.171
					c1.367,0,2.145-1.085,2.145-2.171V5.925z"/>
				<path fill="#F5F5F5" d="M27.69,6.499c0.074,1.125,1.071,1.748,2.028,1.737c0.819,0,1.368-0.37,1.687-0.944h1.723
					c-0.332,0.777-0.83,1.366-1.418,1.761c-0.587,0.409-1.275,0.613-2.003,0.613c-2.158,0-3.702-1.75-3.702-3.703
					c0-1.991,1.557-3.742,3.676-3.742c1.047,0,1.967,0.396,2.618,1.075c0.854,0.881,1.174,1.978,1.033,3.204H27.69z M31.684,5.221
					c-0.062-0.662-0.766-1.593-1.99-1.582c-1.24,0-1.915,0.894-1.979,1.582H31.684z"/>
				<path fill="#F5F5F5" d="M34.836,2.438h1.572V3.32c0.153-0.32,0.83-1.1,2.043-1.1c0.574,0,1.212,0.166,1.723,0.716
					c0.152,0.166,0.331,0.46,0.42,0.639c0.129-0.219,0.28-0.448,0.512-0.665c0.435-0.408,1.045-0.69,1.787-0.69
					c0.586,0,1.328,0.152,1.865,0.703c0.637,0.664,0.764,1.24,0.764,2.681v0.895h-1.673V5.67c0-0.449-0.037-0.933-0.28-1.304
					c-0.179-0.343-0.511-0.574-1.098-0.574s-0.996,0.254-1.214,0.64c-0.218,0.381-0.241,0.752-0.241,1.172v3.845h-1.674V5.604
					c0-0.406-0.038-0.801-0.217-1.16c-0.204-0.371-0.55-0.638-1.147-0.651c-0.613,0-0.997,0.294-1.201,0.651
					c-0.204,0.369-0.269,0.805-0.269,1.214v3.791h-1.674V2.438z"/>
				<path fill="#F5F5F5" d="M53.668,9.449h-1.57V8.516c-0.292,0.549-0.917,1.163-2.183,1.149c-2.299-0.012-2.733-1.762-2.733-2.987
					v-4.24h1.674v3.817c0,1.037,0.344,1.852,1.531,1.84c1.2,0,1.608-0.793,1.608-1.79V2.438h1.672V9.449z"/>
				<path fill="#F5F5F5" d="M58.596,4.33c-0.015-0.371-0.204-0.754-0.854-0.754c-0.563,0-0.831,0.357-0.831,0.702
					c0.012,0.447,0.522,0.689,1.186,0.882c1.124,0.304,2.337,0.636,2.351,2.143c0.026,1.444-1.188,2.363-2.656,2.363
					c-1.085,0-2.553-0.562-2.681-2.26h1.672c0.063,0.754,0.715,0.907,1.033,0.907c0.523,0,0.971-0.346,0.958-0.817
					c0-0.601-0.522-0.766-1.813-1.213c-0.944-0.294-1.71-0.818-1.722-1.826c0-1.378,1.161-2.235,2.514-2.235
					c0.945,0,2.348,0.422,2.49,2.109H58.596z"/>
				<rect x="43.851" y="7.777" fill="#71F4C1" width="1.673" height="1.672"/>
			</g>
		</g>
		<g>
			<text transform="matrix(1 0 0 1 0 22.355)" fill="#3EEEB7" font-family="'Montserrat-Regular'" font-size="10.5784">webeditor</text>
		</g>
	</g>
</g>
<g id="modal" display="none">
</g>
<g id="LOADING">
</g>
</svg>
