<?xml version="1.0" encoding="utf-8"?>
<!-- Generator: Adobe Illustrator 16.0.0, SVG Export Plug-In . SVG Version: 6.00 Build 0)  -->
<!DOCTYPE svg PUBLIC "-//W3C//DTD SVG 1.1//EN" "http://www.w3.org/Graphics/SVG/1.1/DTD/svg11.dtd">
<svg version="1.1" xmlns="http://www.w3.org/2000/svg" xmlns:xlink="http://www.w3.org/1999/xlink" x="0px" y="0px"
	 width="60.448px" height="25px" viewBox="0 0 60.448 25" enable-background="new 0 0 60.448 25" xml:space="preserve">
<g id="LP">
</g>
<g id="MENU">
</g>
<g id="doc-autocomplete">
</g>
<g id="EDITAR_DOMINIO">
	<g>
		<g>
			<g>
				<path fill="#F5F5F5" d="M0,0h1.67v2.272v0.997C2.067,2.527,2.91,2.209,3.74,2.221c1.084,0,1.763,0.372,2.17,0.985
					c0.422,0.613,0.549,1.442,0.549,2.387v3.856H4.787V5.67c0-0.538-0.09-0.997-0.319-1.329C4.225,4.009,3.842,3.792,3.254,3.792
					c-0.663,0-1.058,0.268-1.288,0.614C1.736,4.751,1.67,5.171,1.67,5.529v3.92H0V0z"/>
				<path fill="#F5F5F5" d="M15.549,9.449h-1.673v-1.01c-0.446,0.818-1.378,1.227-2.363,1.227c-2.245,0-3.561-1.75-3.561-3.729
					c0-2.207,1.596-3.716,3.561-3.716c1.278,0,2.057,0.677,2.363,1.241V2.438h1.673V9.449z M9.625,5.978
					c0,0.867,0.626,2.13,2.134,2.13c0.933,0,1.542-0.484,1.863-1.123c0.166-0.307,0.242-0.641,0.27-0.984
					c0.011-0.331-0.053-0.677-0.193-0.983c-0.295-0.663-0.944-1.237-1.953-1.237c-1.354,0-2.121,1.098-2.121,2.183V5.978z"/>
				<path fill="#F5F5F5" d="M17.438,0h1.671v2.465v0.843c0.689-0.857,1.699-1.087,2.337-1.087c1.659,0,3.499,1.213,3.499,3.691
					c0,2.374-1.659,3.753-3.575,3.753c-1.098,0-1.954-0.537-2.324-1.227v1.01h-1.608V0z M23.272,5.925
					c0-1.151-0.881-2.145-2.106-2.145c-1.301,0-2.12,1.021-2.12,2.156c0,1.175,0.818,2.171,2.082,2.171
					c1.367,0,2.145-1.085,2.145-2.171V5.925z"/>
				<path fill="#F5F5F5" d="M27.69,6.5c0.074,1.125,1.071,1.747,2.028,1.736c0.819,0,1.368-0.37,1.687-0.944h1.723
					c-0.332,0.777-0.83,1.367-1.418,1.76c-0.587,0.409-1.275,0.613-2.003,0.613c-2.158,0-3.702-1.75-3.702-3.702
					c0-1.992,1.557-3.743,3.676-3.743c1.047,0,1.967,0.396,2.618,1.075c0.854,0.881,1.174,1.979,1.033,3.204H27.69z M31.684,5.221
					c-0.062-0.662-0.766-1.593-1.99-1.582c-1.24,0-1.915,0.894-1.979,1.582H31.684z"/>
				<path fill="#F5F5F5" d="M34.836,2.438h1.572V3.32c0.153-0.32,0.83-1.1,2.043-1.1c0.574,0,1.212,0.166,1.723,0.716
					c0.152,0.166,0.331,0.46,0.42,0.639c0.129-0.219,0.28-0.448,0.512-0.665c0.435-0.408,1.045-0.69,1.787-0.69
					c0.586,0,1.328,0.153,1.865,0.703c0.637,0.664,0.764,1.24,0.764,2.681V6.5h-1.673V5.67c0-0.449-0.037-0.933-0.28-1.303
					c-0.179-0.343-0.511-0.574-1.098-0.574s-0.996,0.254-1.214,0.64c-0.218,0.381-0.241,0.752-0.241,1.172v3.845h-1.674V5.604
					c0-0.406-0.038-0.802-0.217-1.16c-0.204-0.371-0.55-0.638-1.147-0.651c-0.613,0-0.997,0.294-1.201,0.651
					c-0.204,0.369-0.269,0.805-0.269,1.214v3.791h-1.674V2.438z"/>
				<path fill="#F5F5F5" d="M53.668,9.449h-1.57V8.516c-0.292,0.549-0.917,1.163-2.183,1.149c-2.299-0.012-2.733-1.762-2.733-2.987
					v-4.24h1.674v3.817c0,1.037,0.344,1.853,1.531,1.84c1.2,0,1.608-0.793,1.608-1.79V2.438h1.672V9.449z"/>
				<path fill="#F5F5F5" d="M58.596,4.33c-0.015-0.371-0.204-0.754-0.854-0.754c-0.563,0-0.831,0.357-0.831,0.702
					c0.012,0.447,0.522,0.689,1.186,0.882c1.124,0.305,2.337,0.636,2.351,2.143c0.026,1.444-1.188,2.363-2.656,2.363
					c-1.085,0-2.553-0.562-2.681-2.26h1.672c0.063,0.754,0.715,0.907,1.033,0.907c0.523,0,0.971-0.346,0.958-0.817
					c0-0.601-0.522-0.765-1.813-1.213c-0.944-0.294-1.71-0.817-1.722-1.826c0-1.378,1.161-2.235,2.514-2.235
					c0.945,0,2.348,0.422,2.49,2.109H58.596z"/>
				<rect x="43.851" y="7.777" fill="#71F4C1" width="1.673" height="1.672"/>
			</g>
		</g>
		<g>
			<g>
				<path fill="#3EEEB7" d="M3.491,22.355H2.137L0.19,16.728h1.227l1.396,4.252l1.396-4.252h1.227l1.396,4.252l1.396-4.252h1.227
					l-1.946,5.627H6.157l-1.333-3.851L3.491,22.355z"/>
				<path fill="#3EEEB7" d="M15.741,20.06H11.33c0.028,0.409,0.215,0.738,0.561,0.989s0.74,0.375,1.185,0.375
					c0.705,0,1.241-0.222,1.608-0.667l0.677,0.741c-0.606,0.628-1.396,0.941-2.37,0.941c-0.79,0-1.461-0.263-2.015-0.788
					s-0.831-1.23-0.831-2.116s0.282-1.588,0.846-2.11s1.229-0.783,1.994-0.783s1.416,0.231,1.952,0.692
					c0.535,0.462,0.804,1.099,0.804,1.91V20.06z M11.33,19.129h3.227c0-0.472-0.148-0.835-0.444-1.089
					c-0.296-0.254-0.661-0.381-1.095-0.381c-0.434,0-0.824,0.132-1.169,0.396S11.33,18.677,11.33,19.129z"/>
				<path fill="#3EEEB7" d="M20.056,16.643c0.755,0,1.4,0.261,1.937,0.783c0.536,0.522,0.804,1.216,0.804,2.083
					c0,0.868-0.267,1.573-0.799,2.116s-1.153,0.814-1.862,0.814s-1.345-0.311-1.909-0.931v0.846h-1.185v-7.849h1.185v3.205
					C18.692,16.999,19.302,16.643,20.056,16.643z M18.206,19.552c0,0.536,0.162,0.975,0.486,1.316
					c0.324,0.343,0.719,0.514,1.185,0.514c0.466,0,0.871-0.17,1.217-0.508c0.346-0.339,0.519-0.778,0.519-1.317
					c0-0.539-0.169-0.987-0.508-1.343c-0.339-0.356-0.744-0.534-1.217-0.534s-0.871,0.178-1.195,0.534S18.206,19.016,18.206,19.552z
					"/>
				<path fill="#3EEEB7" d="M29.387,20.06h-4.412c0.028,0.409,0.215,0.738,0.561,0.989c0.345,0.25,0.741,0.375,1.185,0.375
					c0.705,0,1.241-0.222,1.607-0.667l0.677,0.741c-0.607,0.628-1.396,0.941-2.37,0.941c-0.79,0-1.462-0.263-2.015-0.788
					c-0.554-0.525-0.831-1.23-0.831-2.116s0.282-1.588,0.847-2.11c0.563-0.522,1.229-0.783,1.994-0.783s1.416,0.231,1.952,0.692
					c0.536,0.462,0.804,1.099,0.804,1.91V20.06z M24.975,19.129h3.227c0-0.472-0.148-0.835-0.444-1.089
					c-0.296-0.254-0.661-0.381-1.095-0.381s-0.823,0.132-1.169,0.396S24.975,18.677,24.975,19.129z"/>
				<path fill="#3EEEB7" d="M31.122,21.636c-0.529-0.536-0.794-1.241-0.794-2.116c0-0.874,0.271-1.572,0.815-2.094
					c0.543-0.522,1.19-0.783,1.941-0.783s1.356,0.317,1.814,0.952v-3.089h1.185v7.849h-1.185v-0.846
					c-0.438,0.62-1.076,0.931-1.915,0.931C32.271,22.44,31.65,22.172,31.122,21.636z M31.513,19.568c0,0.54,0.173,0.979,0.518,1.317
					c0.346,0.338,0.751,0.508,1.217,0.508c0.466,0,0.86-0.171,1.185-0.513c0.324-0.342,0.487-0.781,0.487-1.317
					c0-0.536-0.163-0.984-0.487-1.343c-0.324-0.36-0.723-0.54-1.195-0.54s-0.878,0.18-1.216,0.54
					C31.682,18.579,31.513,19.028,31.513,19.568z"/>
				<path fill="#3EEEB7" d="M37.871,15.606c-0.148-0.148-0.223-0.324-0.223-0.528c0-0.205,0.074-0.381,0.223-0.529
					c0.148-0.148,0.324-0.222,0.528-0.222c0.205,0,0.381,0.074,0.529,0.222c0.148,0.148,0.222,0.324,0.222,0.529
					c0,0.204-0.074,0.38-0.222,0.528c-0.148,0.148-0.324,0.223-0.529,0.223C38.195,15.829,38.019,15.754,37.871,15.606z
					 M38.981,22.355h-1.185v-5.627h1.185V22.355z"/>
				<path fill="#3EEEB7" d="M42.155,17.68v2.856c0,0.269,0.07,0.481,0.211,0.64s0.338,0.238,0.592,0.238s0.497-0.123,0.73-0.37
					l0.487,0.836c-0.417,0.374-0.877,0.561-1.381,0.561s-0.935-0.175-1.291-0.523c-0.356-0.35-0.534-0.82-0.534-1.413V17.68h-0.708
					v-0.952h0.708v-1.767h1.185v1.767h1.48v0.952H42.155z"/>
				<path fill="#3EEEB7" d="M49.782,21.599c-0.564,0.561-1.27,0.841-2.116,0.841s-1.551-0.28-2.116-0.841s-0.846-1.247-0.846-2.058
					s0.282-1.497,0.846-2.058s1.27-0.841,2.116-0.841s1.551,0.28,2.116,0.841s0.846,1.247,0.846,2.058S50.346,21.039,49.782,21.599z
					 M46.391,20.869c0.335,0.343,0.76,0.514,1.275,0.514c0.515,0,0.94-0.171,1.275-0.514c0.335-0.342,0.502-0.784,0.502-1.327
					s-0.167-0.985-0.502-1.328s-0.76-0.513-1.275-0.513c-0.515,0-0.94,0.171-1.275,0.513s-0.502,0.785-0.502,1.328
					S46.056,20.527,46.391,20.869z"/>
				<path fill="#3EEEB7" d="M54.922,17.838c-0.585,0-1.025,0.19-1.322,0.571c-0.296,0.381-0.444,0.892-0.444,1.534v2.412h-1.185
					v-5.627h1.185v1.132c0.19-0.353,0.45-0.642,0.777-0.868c0.328-0.226,0.675-0.342,1.042-0.349l0.01,1.195
					C54.965,17.838,54.944,17.838,54.922,17.838z"/>
			</g>
		</g>
	</g>
</g>
<g id="modal" display="none">
</g>
<g id="LOADING">
</g>
</svg>
