<?xml version="1.0" encoding="utf-8"?>
<!-- Generator: Adobe Illustrator 16.0.0, SVG Export Plug-In . SVG Version: 6.00 Build 0)  -->
<!DOCTYPE svg PUBLIC "-//W3C//DTD SVG 1.1//EN" "http://www.w3.org/Graphics/SVG/1.1/DTD/svg11.dtd">
<svg version="1.1" xmlns="http://www.w3.org/2000/svg" xmlns:xlink="http://www.w3.org/1999/xlink" x="0px" y="0px" width="120px"
	 height="10px" viewBox="0 0 120 10" enable-background="new 0 0 120 10" xml:space="preserve">
<g id="LP">
	<g>
		<g>
			<g>
				<path fill="#F5F5F5" d="M0.42,0.167h1.67V2.44v0.997C2.487,2.695,3.33,2.376,4.16,2.388c1.084,0,1.763,0.372,2.17,0.984
					C6.752,3.986,6.88,4.815,6.88,5.76v3.856H5.208V5.837c0-0.537-0.09-0.997-0.318-1.329C4.646,4.176,4.263,3.96,3.674,3.96
					c-0.663,0-1.058,0.268-1.288,0.614c-0.23,0.345-0.295,0.765-0.295,1.123v3.92H0.42V0.167z"/>
				<path fill="#F5F5F5" d="M15.97,9.616h-1.673v-1.01c-0.446,0.817-1.378,1.227-2.363,1.227c-2.245,0-3.561-1.75-3.561-3.729
					c0-2.207,1.596-3.716,3.561-3.716c1.278,0,2.057,0.677,2.363,1.241V2.605h1.673V9.616z M10.045,6.145
					c0,0.867,0.626,2.13,2.134,2.13c0.933,0,1.542-0.484,1.863-1.123c0.166-0.306,0.242-0.64,0.27-0.983
					c0.011-0.331-0.053-0.677-0.193-0.983c-0.295-0.663-0.944-1.237-1.953-1.237c-1.354,0-2.121,1.098-2.121,2.182V6.145z"/>
				<path fill="#F5F5F5" d="M17.858,0.167h1.671v2.464v0.843c0.689-0.857,1.699-1.087,2.337-1.087c1.659,0,3.499,1.213,3.499,3.691
					c0,2.374-1.659,3.753-3.575,3.753c-1.098,0-1.954-0.537-2.324-1.227v1.01h-1.608V0.167z M23.692,6.093
					c0-1.151-0.881-2.145-2.106-2.145c-1.301,0-2.12,1.022-2.12,2.156c0,1.175,0.818,2.171,2.082,2.171
					c1.367,0,2.145-1.085,2.145-2.171V6.093z"/>
				<path fill="#F5F5F5" d="M28.111,6.667c0.074,1.125,1.071,1.748,2.028,1.737c0.818,0,1.368-0.37,1.687-0.944h1.723
					c-0.332,0.778-0.83,1.366-1.418,1.761c-0.587,0.409-1.275,0.613-2.003,0.613c-2.158,0-3.702-1.75-3.702-3.703
					c0-1.991,1.557-3.742,3.676-3.742c1.047,0,1.967,0.396,2.618,1.075c0.854,0.881,1.174,1.978,1.033,3.204H28.111z M32.104,5.388
					c-0.062-0.662-0.766-1.593-1.99-1.582c-1.24,0-1.915,0.894-1.979,1.582H32.104z"/>
				<path fill="#F5F5F5" d="M35.257,2.605h1.572v0.882c0.153-0.32,0.83-1.1,2.043-1.1c0.574,0,1.212,0.166,1.723,0.716
					c0.152,0.166,0.331,0.46,0.42,0.639c0.129-0.219,0.28-0.448,0.512-0.665c0.435-0.408,1.045-0.69,1.787-0.69
					c0.586,0,1.328,0.152,1.865,0.702c0.637,0.664,0.764,1.24,0.764,2.681v0.895h-1.673V5.837c0-0.449-0.037-0.933-0.28-1.304
					C43.812,4.191,43.48,3.96,42.894,3.96s-0.996,0.254-1.213,0.639c-0.218,0.381-0.241,0.753-0.241,1.172v3.845h-1.674V5.771
					c0-0.406-0.039-0.801-0.218-1.16C39.343,4.24,38.997,3.973,38.4,3.96c-0.613,0-0.997,0.293-1.201,0.651
					c-0.204,0.369-0.268,0.804-0.268,1.213v3.792h-1.674V2.605z"/>
				<path fill="#F5F5F5" d="M54.088,9.616h-1.57V8.684c-0.292,0.549-0.917,1.163-2.183,1.149c-2.299-0.012-2.733-1.763-2.733-2.987
					v-4.24h1.674v3.817c0,1.037,0.344,1.852,1.531,1.84c1.2,0,1.608-0.793,1.608-1.79V2.605h1.672V9.616z"/>
				<path fill="#F5F5F5" d="M59.017,4.497c-0.015-0.372-0.204-0.754-0.854-0.754c-0.563,0-0.831,0.357-0.831,0.702
					c0.012,0.447,0.522,0.689,1.186,0.882c1.124,0.304,2.337,0.636,2.351,2.143c0.026,1.444-1.188,2.363-2.656,2.363
					c-1.085,0-2.553-0.562-2.681-2.26h1.672c0.063,0.754,0.715,0.907,1.033,0.907c0.523,0,0.971-0.346,0.958-0.817
					c0-0.601-0.522-0.766-1.813-1.214c-0.944-0.293-1.71-0.817-1.722-1.826c0-1.378,1.161-2.235,2.514-2.235
					c0.945,0,2.348,0.422,2.49,2.109H59.017z"/>
				<rect x="44.271" y="7.944" fill="#71F4C1" width="1.673" height="1.672"/>
			</g>
		</g>
		<g>
			<g>
				<path fill="#3EEEB7" d="M68.085,9.612H66.73l-1.946-5.627h1.227l1.396,4.252l1.396-4.252h1.228l1.396,4.252l1.396-4.252h1.227
					l-1.946,5.627H70.75l-1.333-3.851L68.085,9.612z"/>
				<path fill="#3EEEB7" d="M80.334,7.317h-4.412c0.028,0.409,0.215,0.738,0.561,0.989c0.345,0.25,0.741,0.375,1.185,0.375
					c0.705,0,1.241-0.222,1.607-0.667l0.677,0.741c-0.607,0.628-1.396,0.941-2.37,0.941c-0.79,0-1.462-0.263-2.015-0.788
					c-0.554-0.525-0.831-1.23-0.831-2.116s0.282-1.588,0.847-2.11C76.148,4.161,76.813,3.9,77.579,3.9s1.416,0.231,1.952,0.692
					c0.536,0.462,0.804,1.099,0.804,1.91V7.317z M75.923,6.386h3.227c0-0.472-0.148-0.835-0.444-1.089
					c-0.296-0.254-0.661-0.381-1.095-0.381s-0.823,0.132-1.169,0.396S75.923,5.935,75.923,6.386z"/>
				<path fill="#3EEEB7" d="M84.65,3.9c0.754,0,1.399,0.261,1.936,0.783s0.804,1.216,0.804,2.083c0,0.868-0.266,1.573-0.799,2.116
					s-1.153,0.814-1.862,0.814s-1.345-0.311-1.909-0.931v0.846h-1.185V1.764h1.185v3.205C83.286,4.256,83.896,3.9,84.65,3.9z
					 M82.799,6.81c0,0.536,0.162,0.975,0.487,1.316c0.324,0.343,0.719,0.514,1.185,0.514c0.465,0,0.871-0.17,1.216-0.508
					c0.345-0.339,0.518-0.778,0.518-1.317c0-0.539-0.169-0.987-0.508-1.343c-0.338-0.356-0.744-0.534-1.216-0.534
					s-0.871,0.178-1.195,0.534C82.961,5.827,82.799,6.273,82.799,6.81z"/>
				<path fill="#3EEEB7" d="M93.98,7.317h-4.411c0.028,0.409,0.215,0.738,0.561,0.989s0.74,0.375,1.185,0.375
					c0.705,0,1.241-0.222,1.608-0.667L93.6,8.756c-0.606,0.628-1.396,0.941-2.37,0.941c-0.79,0-1.461-0.263-2.015-0.788
					s-0.831-1.23-0.831-2.116s0.282-1.588,0.846-2.11S90.459,3.9,91.225,3.9s1.416,0.231,1.952,0.692
					c0.535,0.462,0.804,1.099,0.804,1.91V7.317z M89.569,6.386h3.227c0-0.472-0.148-0.835-0.444-1.089
					c-0.296-0.254-0.661-0.381-1.095-0.381c-0.434,0-0.824,0.132-1.169,0.396S89.569,5.935,89.569,6.386z"/>
				<path fill="#3EEEB7" d="M95.715,8.894c-0.528-0.536-0.793-1.241-0.793-2.116c0-0.874,0.271-1.572,0.814-2.094
					S96.926,3.9,97.678,3.9c0.751,0,1.355,0.317,1.814,0.952V1.764h1.185v7.849h-1.185V8.767c-0.438,0.62-1.076,0.931-1.915,0.931
					C96.864,9.697,96.244,9.429,95.715,8.894z M96.106,6.825c0,0.54,0.173,0.979,0.519,1.317C96.97,8.48,97.376,8.65,97.841,8.65
					s0.86-0.171,1.185-0.513c0.324-0.342,0.486-0.781,0.486-1.317c0-0.536-0.162-0.984-0.486-1.343
					c-0.325-0.36-0.723-0.54-1.195-0.54c-0.473,0-0.878,0.18-1.217,0.54C96.276,5.836,96.106,6.286,96.106,6.825z"/>
				<path fill="#3EEEB7" d="M102.464,2.863c-0.148-0.148-0.222-0.324-0.222-0.528c0-0.205,0.074-0.381,0.222-0.529
					c0.148-0.148,0.324-0.222,0.529-0.222c0.204,0,0.381,0.074,0.529,0.222c0.148,0.148,0.222,0.324,0.222,0.529
					c0,0.204-0.074,0.38-0.222,0.528c-0.148,0.148-0.325,0.223-0.529,0.223C102.788,3.086,102.612,3.012,102.464,2.863z
					 M103.575,9.612h-1.185V3.985h1.185V9.612z"/>
				<path fill="#3EEEB7" d="M106.748,4.937v2.856c0,0.269,0.07,0.481,0.212,0.64c0.141,0.159,0.338,0.238,0.592,0.238
					s0.498-0.123,0.73-0.37l0.486,0.836c-0.416,0.374-0.876,0.561-1.381,0.561c-0.504,0-0.934-0.175-1.29-0.523
					c-0.356-0.35-0.534-0.82-0.534-1.413V4.937h-0.709V3.985h0.709V2.218h1.185v1.767h1.481v0.952H106.748z"/>
				<path fill="#3EEEB7" d="M114.375,8.856c-0.564,0.561-1.269,0.841-2.115,0.841c-0.847,0-1.552-0.28-2.116-0.841
					c-0.564-0.561-0.846-1.247-0.846-2.058s0.282-1.497,0.846-2.058c0.564-0.561,1.27-0.841,2.116-0.841
					c0.846,0,1.551,0.28,2.115,0.841c0.564,0.561,0.847,1.247,0.847,2.058S114.939,8.296,114.375,8.856z M110.985,8.126
					c0.335,0.343,0.76,0.514,1.275,0.514c0.515,0,0.939-0.171,1.274-0.514c0.335-0.342,0.503-0.784,0.503-1.327
					s-0.168-0.985-0.503-1.328s-0.76-0.513-1.274-0.513c-0.515,0-0.94,0.171-1.275,0.513s-0.502,0.785-0.502,1.328
					S110.65,7.784,110.985,8.126z"/>
				<path fill="#3EEEB7" d="M119.516,5.096c-0.585,0-1.026,0.19-1.322,0.571s-0.444,0.892-0.444,1.534v2.412h-1.185V3.985h1.185
					v1.132c0.19-0.353,0.449-0.642,0.777-0.868c0.328-0.226,0.675-0.342,1.042-0.349l0.01,1.195
					C119.559,5.096,119.537,5.096,119.516,5.096z"/>
			</g>
		</g>
	</g>
</g>
<g id="feedback" display="none">
</g>
<g id="HOVER" display="none">
</g>
<g id="MENU" display="none">
</g>
<g id="EDITAR_DOMINIO" display="none">
</g>
<g id="modal" display="none">
</g>
<g id="simular_click" display="none">
</g>
<g id="LOADING" display="none">
</g>
</svg>
