<?xml version="1.0" encoding="utf-8"?>
<!-- Generator: Adobe Illustrator 16.0.0, SVG Export Plug-In . SVG Version: 6.00 Build 0)  -->
<!DOCTYPE svg PUBLIC "-//W3C//DTD SVG 1.1//EN" "http://www.w3.org/Graphics/SVG/1.1/DTD/svg11.dtd">
<svg version="1.1" xmlns="http://www.w3.org/2000/svg" xmlns:xlink="http://www.w3.org/1999/xlink" x="0px" y="0px" width="64px"
	 height="42px" viewBox="0 0 64 42" enable-background="new 0 0 64 42" xml:space="preserve">
<g id="MATERIAL">
	<g>
		<g>
			<g>
				<path fill="none" stroke="#6D6D6D" stroke-miterlimit="10" d="M29.672,15.479c0,1.65-1.35,3-3,3h-13c-1.65,0-3-1.35-3-3v-10
					c0-1.65,1.35-3,3-3h13c1.65,0,3,1.35,3,3V15.479z"/>
			</g>
			<g>
				<path fill="none" stroke="#6D6D6D" stroke-miterlimit="10" d="M53.672,15.479c0,1.65-1.35,3-3,3h-13c-1.65,0-3-1.35-3-3v-10
					c0-1.65,1.35-3,3-3h13c1.65,0,3,1.35,3,3V15.479z"/>
			</g>
		</g>
	</g>
	<g>
		<g>
			<g>
				<path fill="none" stroke="#6D6D6D" stroke-miterlimit="10" d="M29.672,36.479c0,1.65-1.35,3-3,3h-13c-1.65,0-3-1.35-3-3v-10
					c0-1.65,1.35-3,3-3h13c1.65,0,3,1.35,3,3V36.479z"/>
			</g>
			<g>
				<path fill="none" stroke="#6D6D6D" stroke-miterlimit="10" d="M53.672,36.479c0,1.65-1.35,3-3,3h-13c-1.65,0-3-1.35-3-3v-10
					c0-1.65,1.35-3,3-3h13c1.65,0,3,1.35,3,3V36.479z"/>
			</g>
		</g>
	</g>
</g>
<g id="LOADING">
</g>
</svg>
