<?xml version="1.0" encoding="utf-8"?>
<!-- Generator: Adobe Illustrator 16.0.0, SVG Export Plug-In . SVG Version: 6.00 Build 0)  -->
<!DOCTYPE svg PUBLIC "-//W3C//DTD SVG 1.1//EN" "http://www.w3.org/Graphics/SVG/1.1/DTD/svg11.dtd">
<svg version="1.1" xmlns="http://www.w3.org/2000/svg" xmlns:xlink="http://www.w3.org/1999/xlink" x="0px" y="0px" width="64px"
	 height="42px" viewBox="0 0 64 42" enable-background="new 0 0 64 42" xml:space="preserve">
<g id="MATERIAL">
	<g>
		<g>
			<path fill="none" stroke="#6D6D6D" stroke-miterlimit="10" d="M18.256,23.052c0.893-1.388,2.973-2.523,4.623-2.523h34.307
				c1.65,0,2.186,1.077,1.191,2.394L47.635,37.14c-0.995,1.316-3.159,2.394-4.809,2.394H10.654c-1.65,0-2.27-1.135-1.377-2.523
				L18.256,23.052z"/>
		</g>
		<g>
			<path fill="none" stroke="#6D6D6D" stroke-miterlimit="10" d="M24.564,39.534h-13.91c-1.65,0-3-1.35-3-3V5.466c0-1.65,1.35-3,3-3
				h12.071c1.65,0,3,1.35,3,3V7.62c0,1.65,1.35,3,3,3h14.902c1.65,0,3,1.35,3,3v7.01"/>
		</g>
	</g>
</g>
<g id="LOADING">
</g>
</svg>
